<svg width="360" height="196" viewBox="0 0 360 196" fill="none" xmlns="http://www.w3.org/2000/svg">
<g clip-path="url(#clip0_867_6399)">
<rect width="360" height="196" rx="12" fill="#FBF9F7"/>
<path d="M70.4426 24.946H14.2018C12.4335 24.946 11 26.3796 11 28.1479V95.5255C11 97.2938 12.4335 98.7273 14.2018 98.7273H70.4426C72.2109 98.7273 73.6444 97.2938 73.6444 95.5255V28.1479C73.6444 26.3796 72.2109 24.946 70.4426 24.946Z" fill="white" stroke="#DADADA" stroke-width="0.5"/>
<path d="M31.4634 28.1477H15.8719C14.6418 28.1477 13.6445 29.1449 13.6445 30.3751V45.9666C13.6445 47.1967 14.6418 48.1939 15.8719 48.1939H31.4634C32.6935 48.1939 33.6908 47.1967 33.6908 45.9666V30.3751C33.6908 29.1449 32.6935 28.1477 31.4634 28.1477Z" fill="#F5F3F1"/>
<path d="M23.6692 38.4494L25.0613 35.9436L27.0102 39.8415H20.3281L22.5555 37.6141L23.6692 38.4494Z" fill="#BDC7D3"/>
<path d="M22.8342 37.0573C23.1417 37.0573 23.391 36.808 23.391 36.5004C23.391 36.1929 23.1417 35.9436 22.8342 35.9436C22.5266 35.9436 22.2773 36.1929 22.2773 36.5004C22.2773 36.808 22.5266 37.0573 22.8342 37.0573Z" fill="#BDC7D3"/>
<path d="M31.4634 52.0918H15.8719C14.6418 52.0918 13.6445 53.089 13.6445 54.3192V69.9107C13.6445 71.1408 14.6418 72.138 15.8719 72.138H31.4634C32.6935 72.138 33.6908 71.1408 33.6908 69.9107V54.3192C33.6908 53.089 32.6935 52.0918 31.4634 52.0918Z" fill="#F5F3F1"/>
<path d="M23.6692 62.3932L25.0613 59.8875L27.0102 63.7853H20.3281L22.5555 61.558L23.6692 62.3932Z" fill="#BDC7D3"/>
<path d="M22.8342 61.0011C23.1417 61.0011 23.391 60.7518 23.391 60.4443C23.391 60.1368 23.1417 59.8875 22.8342 59.8875C22.5266 59.8875 22.2773 60.1368 22.2773 60.4443C22.2773 60.7518 22.5266 61.0011 22.8342 61.0011Z" fill="#BDC7D3"/>
<path d="M31.4634 76.0359H15.8719C14.6418 76.0359 13.6445 77.0331 13.6445 78.2632V93.8548C13.6445 95.0849 14.6418 96.0821 15.8719 96.0821H31.4634C32.6935 96.0821 33.6908 95.0849 33.6908 93.8548V78.2632C33.6908 77.0331 32.6935 76.0359 31.4634 76.0359Z" fill="#F5F3F1"/>
<path d="M23.6692 86.3376L25.0613 83.8318L27.0102 87.7297H20.3281L22.5555 85.5023L23.6692 86.3376Z" fill="#BDC7D3"/>
<path d="M22.8342 84.9455C23.1417 84.9455 23.391 84.6962 23.391 84.3886C23.391 84.0811 23.1417 83.8318 22.8342 83.8318C22.5266 83.8318 22.2773 84.0811 22.2773 84.3886C22.2773 84.6962 22.5266 84.9455 22.8342 84.9455Z" fill="#BDC7D3"/>
<path d="M54.8501 28.1477H39.2586C38.0285 28.1477 37.0312 29.1449 37.0312 30.3751V45.9666C37.0312 47.1967 38.0285 48.1939 39.2586 48.1939H54.8501C56.0802 48.1939 57.0775 47.1967 57.0775 45.9666V30.3751C57.0775 29.1449 56.0802 28.1477 54.8501 28.1477Z" fill="#F5F3F1"/>
<path d="M47.0559 38.4494L48.448 35.9436L50.3969 39.8415H43.7148L45.9422 37.6141L47.0559 38.4494Z" fill="#BDC7D3"/>
<path d="M46.2209 37.0573C46.5284 37.0573 46.7777 36.808 46.7777 36.5004C46.7777 36.1929 46.5284 35.9436 46.2209 35.9436C45.9134 35.9436 45.6641 36.1929 45.6641 36.5004C45.6641 36.808 45.9134 37.0573 46.2209 37.0573Z" fill="#BDC7D3"/>
<path d="M54.8501 52.0918H39.2586C38.0285 52.0918 37.0312 53.089 37.0312 54.3192V69.9107C37.0312 71.1408 38.0285 72.138 39.2586 72.138H54.8501C56.0802 72.138 57.0775 71.1408 57.0775 69.9107V54.3192C57.0775 53.089 56.0802 52.0918 54.8501 52.0918Z" fill="#F5F3F1"/>
<path d="M47.0559 62.3932L48.448 59.8875L50.3969 63.7853H43.7148L45.9422 61.558L47.0559 62.3932Z" fill="#BDC7D3"/>
<path d="M46.2209 61.0011C46.5284 61.0011 46.7777 60.7518 46.7777 60.4443C46.7777 60.1368 46.5284 59.8875 46.2209 59.8875C45.9134 59.8875 45.6641 60.1368 45.6641 60.4443C45.6641 60.7518 45.9134 61.0011 46.2209 61.0011Z" fill="#BDC7D3"/>
<path d="M54.8501 76.0359H39.2586C38.0285 76.0359 37.0312 77.0331 37.0312 78.2632V93.8548C37.0312 95.0849 38.0285 96.0821 39.2586 96.0821H54.8501C56.0802 96.0821 57.0775 95.0849 57.0775 93.8548V78.2632C57.0775 77.0331 56.0802 76.0359 54.8501 76.0359Z" fill="#F5F3F1"/>
<path d="M47.0559 86.3376L48.448 83.8318L50.3969 87.7297H43.7148L45.9422 85.5023L47.0559 86.3376Z" fill="#BDC7D3"/>
<path d="M46.2209 84.9455C46.5284 84.9455 46.7777 84.6962 46.7777 84.3886C46.7777 84.0811 46.5284 83.8318 46.2209 83.8318C45.9134 83.8318 45.6641 84.0811 45.6641 84.3886C45.6641 84.6962 45.9134 84.9455 46.2209 84.9455Z" fill="#BDC7D3"/>
<path d="M78.2407 28.1477H62.6492C61.4191 28.1477 60.4219 29.1449 60.4219 30.3751V45.9666C60.4219 47.1967 61.4191 48.1939 62.6492 48.1939H78.2407C79.4709 48.1939 80.4681 47.1967 80.4681 45.9666V30.3751C80.4681 29.1449 79.4709 28.1477 78.2407 28.1477Z" fill="#F5F3F1"/>
<path d="M70.4426 38.4494L71.8347 35.9436L73.7836 39.8415H67.1016L69.3289 37.6141L70.4426 38.4494Z" fill="#BDC7D3"/>
<path d="M69.6076 37.0573C69.9152 37.0573 70.1645 36.808 70.1645 36.5004C70.1645 36.1929 69.9152 35.9436 69.6076 35.9436C69.3001 35.9436 69.0508 36.1929 69.0508 36.5004C69.0508 36.808 69.3001 37.0573 69.6076 37.0573Z" fill="#BDC7D3"/>
<path d="M78.2407 52.0918H62.6492C61.4191 52.0918 60.4219 53.089 60.4219 54.3192V69.9107C60.4219 71.1408 61.4191 72.138 62.6492 72.138H78.2407C79.4709 72.138 80.4681 71.1408 80.4681 69.9107V54.3192C80.4681 53.089 79.4709 52.0918 78.2407 52.0918Z" fill="#F5F3F1"/>
<path d="M70.4426 62.3932L71.8347 59.8875L73.7836 63.7853H67.1016L69.3289 61.558L70.4426 62.3932Z" fill="#BDC7D3"/>
<path d="M69.6076 61.0011C69.9152 61.0011 70.1645 60.7518 70.1645 60.4443C70.1645 60.1368 69.9152 59.8875 69.6076 59.8875C69.3001 59.8875 69.0508 60.1368 69.0508 60.4443C69.0508 60.7518 69.3001 61.0011 69.6076 61.0011Z" fill="#BDC7D3"/>
<path d="M78.2407 76.0359H62.6492C61.4191 76.0359 60.4219 77.0331 60.4219 78.2632V93.8548C60.4219 95.0849 61.4191 96.0821 62.6492 96.0821H78.2407C79.4709 96.0821 80.4681 95.0849 80.4681 93.8548V78.2632C80.4681 77.0331 79.4709 76.0359 78.2407 76.0359Z" fill="#F5F3F1"/>
<path d="M70.4426 86.3376L71.8347 83.8318L73.7836 87.7297H67.1016L69.3289 85.5023L70.4426 86.3376Z" fill="#BDC7D3"/>
<path d="M69.6076 84.9455C69.9152 84.9455 70.1645 84.6962 70.1645 84.3886C70.1645 84.0811 69.9152 83.8318 69.6076 83.8318C69.3001 83.8318 69.0508 84.0811 69.0508 84.3886C69.0508 84.6962 69.3001 84.9455 69.6076 84.9455Z" fill="#BDC7D3"/>
<path d="M319.905 -48H70.4409C67.4424 -48 65.0117 -45.5693 65.0117 -42.5708V153.437C65.0117 156.435 67.4424 158.866 70.4409 158.866H319.905C322.903 158.866 325.334 156.435 325.334 153.437V-42.5708C325.334 -45.5693 322.903 -48 319.905 -48Z" fill="#F5F3F1" stroke="#DADADA" stroke-width="0.5"/>
<path d="M254.759 0.862793H135.038C133.5 0.862793 132.254 2.10932 132.254 3.64699C132.254 5.18466 133.5 6.43119 135.038 6.43119H254.759C256.296 6.43119 257.543 5.18466 257.543 3.64699C257.543 2.10932 256.296 0.862793 254.759 0.862793Z" fill="#E4D1D1"/>
<path d="M148.401 20.9087H91.0467C88.2789 20.9087 86.0352 23.1524 86.0352 25.9202V112.23C86.0352 114.998 88.2789 117.242 91.0467 117.242H148.401C151.169 117.242 153.413 114.998 153.413 112.23V25.9202C153.413 23.1524 151.169 20.9087 148.401 20.9087Z" fill="white"/>
<path d="M135.037 49.8645H104.411C103.181 49.8645 102.184 50.8617 102.184 52.0919C102.184 53.322 103.181 54.3192 104.411 54.3192H135.037C136.267 54.3192 137.264 53.322 137.264 52.0919C137.264 50.8617 136.267 49.8645 135.037 49.8645Z" fill="#E4D1D1"/>
<path d="M143.387 99.98H96.0559C94.2107 99.98 92.7148 101.476 92.7148 103.321V107.219C92.7148 109.064 94.2107 110.56 96.0559 110.56H143.387C145.232 110.56 146.728 109.064 146.728 107.219V103.321C146.728 101.476 145.232 99.98 143.387 99.98Z" fill="#E4D1D1"/>
<path d="M140.886 62.115H99.1226C98.3537 62.115 97.7305 62.7383 97.7305 63.5071C97.7305 64.2759 98.3537 64.8992 99.1226 64.8992H140.886C141.654 64.8992 142.278 64.2759 142.278 63.5071C142.278 62.7383 141.654 62.115 140.886 62.115Z" fill="#F5F3F1"/>
<path d="M138.656 75.479H100.791C100.022 75.479 99.3984 76.1023 99.3984 76.8711C99.3984 77.6399 100.022 78.2632 100.791 78.2632H138.656C139.424 78.2632 140.048 77.6399 140.048 76.8711C140.048 76.1023 139.424 75.479 138.656 75.479Z" fill="#F5F3F1"/>
<path d="M131.973 89.957H108.029C107.26 89.957 106.637 90.5803 106.637 91.3491C106.637 92.118 107.26 92.7412 108.029 92.7412H131.973C132.742 92.7412 133.365 92.118 133.365 91.3491C133.365 90.5803 132.742 89.957 131.973 89.957Z" fill="#F5F3F1"/>
<path d="M125.85 103.878H113.599C112.83 103.878 112.207 104.501 112.207 105.27C112.207 106.039 112.83 106.662 113.599 106.662H125.85C126.618 106.662 127.242 106.039 127.242 105.27C127.242 104.501 126.618 103.878 125.85 103.878Z" fill="#FF0000"/>
<path d="M144.781 68.7969H94.6655C93.8967 68.7969 93.2734 69.4201 93.2734 70.189C93.2734 70.9578 93.8967 71.5811 94.6655 71.5811H144.781C145.55 71.5811 146.173 70.9578 146.173 70.189C146.173 69.4201 145.55 68.7969 144.781 68.7969Z" fill="#F5F3F1"/>
<path d="M142.557 82.1611H96.896C96.1272 82.1611 95.5039 82.7844 95.5039 83.5532C95.5039 84.3221 96.1272 84.9453 96.896 84.9453H142.557C143.326 84.9453 143.949 84.3221 143.949 83.5532C143.949 82.7844 143.326 82.1611 142.557 82.1611Z" fill="#F5F3F1"/>
<path d="M120.001 42.6255C123.999 42.6255 127.24 39.3846 127.24 35.3866C127.24 31.3887 123.999 28.1477 120.001 28.1477C116.003 28.1477 112.762 31.3887 112.762 35.3866C112.762 39.3846 116.003 42.6255 120.001 42.6255Z" fill="#F9EEC1"/>
<path d="M120.388 33.4813L120.78 34.2721C120.833 34.3812 120.975 34.4848 121.095 34.5076L121.805 34.6251C122.259 34.7008 122.364 35.0316 122.039 35.3623L121.485 35.9203C121.393 36.0127 121.34 36.1948 121.37 36.3268L121.529 37.0162C121.654 37.5602 121.365 37.7729 120.889 37.4873L120.223 37.0891C120.104 37.0162 119.903 37.0162 119.783 37.0891L119.118 37.4873C118.642 37.7701 118.352 37.5602 118.478 37.0162L118.636 36.3268C118.661 36.192 118.609 36.01 118.517 35.9175L117.963 35.3596C117.637 35.0316 117.743 34.7008 118.196 34.6223L118.906 34.5048C119.026 34.4848 119.168 34.3784 119.221 34.2693L119.614 33.4786C119.828 33.0526 120.173 33.0526 120.388 33.4813Z" fill="#FAC809"/>
<path d="M298.745 20.9087H241.39C238.623 20.9087 236.379 23.1524 236.379 25.9202V112.23C236.379 114.998 238.623 117.242 241.39 117.242H298.745C301.513 117.242 303.756 114.998 303.756 112.23V25.9202C303.756 23.1524 301.513 20.9087 298.745 20.9087Z" fill="white"/>
<path d="M285.385 49.8645H254.759C253.528 49.8645 252.531 50.8617 252.531 52.0919C252.531 53.322 253.528 54.3192 254.759 54.3192H285.385C286.615 54.3192 287.612 53.322 287.612 52.0919C287.612 50.8617 286.615 49.8645 285.385 49.8645Z" fill="#E4D1D1"/>
<path d="M293.735 99.98H246.404C244.558 99.98 243.062 101.476 243.062 103.321V107.219C243.062 109.064 244.558 110.56 246.404 110.56H293.735C295.58 110.56 297.076 109.064 297.076 107.219V103.321C297.076 101.476 295.58 99.98 293.735 99.98Z" fill="#E4D1D1"/>
<path d="M291.229 62.115H249.466C248.697 62.115 248.074 62.7383 248.074 63.5071C248.074 64.2759 248.697 64.8992 249.466 64.8992H291.229C291.998 64.8992 292.621 64.2759 292.621 63.5071C292.621 62.7383 291.998 62.115 291.229 62.115Z" fill="#F5F3F1"/>
<path d="M288.999 75.479H251.134C250.365 75.479 249.742 76.1023 249.742 76.8711C249.742 77.6399 250.365 78.2632 251.134 78.2632H288.999C289.768 78.2632 290.391 77.6399 290.391 76.8711C290.391 76.1023 289.768 75.479 288.999 75.479Z" fill="#F5F3F1"/>
<path d="M282.321 89.957H258.376C257.608 89.957 256.984 90.5803 256.984 91.3491C256.984 92.118 257.608 92.7412 258.376 92.7412H282.321C283.089 92.7412 283.713 92.118 283.713 91.3491C283.713 90.5803 283.089 89.957 282.321 89.957Z" fill="#F5F3F1"/>
<path d="M276.193 103.878H263.943C263.174 103.878 262.551 104.501 262.551 105.27C262.551 106.039 263.174 106.662 263.943 106.662H276.193C276.962 106.662 277.585 106.039 277.585 105.27C277.585 104.501 276.962 103.878 276.193 103.878Z" fill="#FF0000"/>
<path d="M295.129 68.7969H245.013C244.244 68.7969 243.621 69.4201 243.621 70.189C243.621 70.9578 244.244 71.5811 245.013 71.5811H295.129C295.898 71.5811 296.521 70.9578 296.521 70.189C296.521 69.4201 295.898 68.7969 295.129 68.7969Z" fill="#F5F3F1"/>
<path d="M292.901 82.1611H247.24C246.471 82.1611 245.848 82.7844 245.848 83.5532C245.848 84.3221 246.471 84.9453 247.24 84.9453H292.901C293.669 84.9453 294.293 84.3221 294.293 83.5532C294.293 82.7844 293.669 82.1611 292.901 82.1611Z" fill="#F5F3F1"/>
<path d="M270.348 42.6255C274.346 42.6255 277.587 39.3846 277.587 35.3866C277.587 31.3887 274.346 28.1477 270.348 28.1477C266.35 28.1477 263.109 31.3887 263.109 35.3866C263.109 39.3846 266.35 42.6255 270.348 42.6255Z" fill="#C7DFB3"/>
<path d="M270.735 33.4813L271.128 34.2721C271.181 34.3812 271.323 34.4848 271.442 34.5076L272.152 34.6251C272.606 34.7008 272.712 35.0316 272.386 35.3623L271.832 35.9203C271.74 36.0127 271.687 36.1948 271.718 36.3268L271.877 37.0162C272.002 37.5602 271.713 37.7729 271.236 37.4873L270.571 37.0891C270.451 37.0162 270.251 37.0162 270.131 37.0891L269.466 37.4873C268.99 37.7701 268.7 37.5602 268.825 37.0162L268.984 36.3268C269.009 36.192 268.956 36.01 268.864 35.9175L268.31 35.3596C267.985 35.0316 268.09 34.7008 268.544 34.6223L269.254 34.5048C269.374 34.4848 269.516 34.3784 269.569 34.2693L269.961 33.4786C270.176 33.0526 270.521 33.0526 270.735 33.4813Z" fill="#73C717"/>
<path d="M223.573 20.9087H166.219C163.451 20.9087 161.207 23.1524 161.207 25.9202V112.23C161.207 114.998 163.451 117.242 166.219 117.242H223.573C226.341 117.242 228.585 114.998 228.585 112.23V25.9202C228.585 23.1524 226.341 20.9087 223.573 20.9087Z" fill="white"/>
<path d="M210.209 49.8645H179.583C178.353 49.8645 177.355 50.8617 177.355 52.0919C177.355 53.322 178.353 54.3192 179.583 54.3192H210.209C211.439 54.3192 212.436 53.322 212.436 52.0919C212.436 50.8617 211.439 49.8645 210.209 49.8645Z" fill="#E4D1D1"/>
<path d="M218.563 99.98H171.232C169.386 99.98 167.891 101.476 167.891 103.321V107.219C167.891 109.064 169.386 110.56 171.232 110.56H218.563C220.408 110.56 221.904 109.064 221.904 107.219V103.321C221.904 101.476 220.408 99.98 218.563 99.98Z" fill="#FF0000"/>
<path d="M216.053 62.115H174.291C173.522 62.115 172.898 62.7383 172.898 63.5071C172.898 64.2759 173.522 64.8992 174.291 64.8992H216.053C216.822 64.8992 217.446 64.2759 217.446 63.5071C217.446 62.7383 216.822 62.115 216.053 62.115Z" fill="#F5F3F1"/>
<path d="M213.827 75.479H175.962C175.194 75.479 174.57 76.1023 174.57 76.8711C174.57 77.6399 175.194 78.2632 175.962 78.2632H213.827C214.596 78.2632 215.22 77.6399 215.22 76.8711C215.22 76.1023 214.596 75.479 213.827 75.479Z" fill="#F5F3F1"/>
<path d="M207.145 89.957H183.201C182.432 89.957 181.809 90.5803 181.809 91.3491C181.809 92.118 182.432 92.7412 183.201 92.7412H207.145C207.914 92.7412 208.537 92.118 208.537 91.3491C208.537 90.5803 207.914 89.957 207.145 89.957Z" fill="#F5F3F1"/>
<path d="M201.021 103.878H188.771C188.002 103.878 187.379 104.501 187.379 105.27C187.379 106.039 188.002 106.662 188.771 106.662H201.021C201.79 106.662 202.414 106.039 202.414 105.27C202.414 104.501 201.79 103.878 201.021 103.878Z" fill="#FA6464"/>
<path d="M219.953 68.7969H169.837C169.069 68.7969 168.445 69.4201 168.445 70.189C168.445 70.9578 169.069 71.5811 169.837 71.5811H219.953C220.722 71.5811 221.345 70.9578 221.345 70.189C221.345 69.4201 220.722 68.7969 219.953 68.7969Z" fill="#F5F3F1"/>
<path d="M217.725 82.1611H172.064C171.295 82.1611 170.672 82.7844 170.672 83.5532C170.672 84.3221 171.295 84.9453 172.064 84.9453H217.725C218.494 84.9453 219.117 84.3221 219.117 83.5532C219.117 82.7844 218.494 82.1611 217.725 82.1611Z" fill="#F5F3F1"/>
<path d="M195.173 42.6255C199.17 42.6255 202.411 39.3846 202.411 35.3866C202.411 31.3887 199.17 28.1477 195.173 28.1477C191.175 28.1477 187.934 31.3887 187.934 35.3866C187.934 39.3846 191.175 42.6255 195.173 42.6255Z" fill="#FFDCC9"/>
<path d="M195.56 33.4813L195.952 34.2721C196.005 34.3812 196.147 34.4848 196.267 34.5076L196.977 34.6251C197.43 34.7008 197.536 35.0316 197.211 35.3623L196.656 35.9203C196.565 36.0127 196.512 36.1948 196.542 36.3268L196.701 37.0162C196.826 37.5602 196.537 37.7729 196.061 37.4873L195.395 37.0891C195.276 37.0162 195.075 37.0162 194.955 37.0891L194.29 37.4873C193.814 37.7701 193.524 37.5602 193.65 37.0162L193.808 36.3268C193.833 36.192 193.78 36.01 193.689 35.9175L193.134 35.3596C192.809 35.0316 192.915 34.7008 193.368 34.6223L194.078 34.5048C194.198 34.4848 194.34 34.3784 194.393 34.2693L194.786 33.4786C195 33.0526 195.345 33.0526 195.56 33.4813Z" fill="#FF8A69"/>
<path d="M332.158 134.504H249.189C247.343 134.504 245.848 136 245.848 137.845V166.244C245.848 168.089 247.343 169.585 249.189 169.585H332.158C334.003 169.585 335.499 168.089 335.499 166.244V137.845C335.499 136 334.003 134.504 332.158 134.504Z" fill="white"/>
<path d="M300.972 145.641H284.266C283.036 145.641 282.039 146.638 282.039 147.868C282.039 149.098 283.036 150.096 284.266 150.096H300.972C302.202 150.096 303.199 149.098 303.199 147.868C303.199 146.638 302.202 145.641 300.972 145.641Z" fill="#E2D1D1"/>
<path d="M318.234 155.664H283.71C282.787 155.664 282.039 156.412 282.039 157.335C282.039 158.257 282.787 159.005 283.71 159.005H318.234C319.156 159.005 319.904 158.257 319.904 157.335C319.904 156.412 319.156 155.664 318.234 155.664Z" fill="#F6E4E4"/>
<path d="M264.5 161.232C269.575 161.232 273.688 157.119 273.688 152.045C273.688 146.97 269.575 142.857 264.5 142.857C259.426 142.857 255.312 146.97 255.312 152.045C255.312 157.119 259.426 161.232 264.5 161.232Z" stroke="#E03953" stroke-opacity="0.12" stroke-width="6"/>
<path d="M264.5 142.872C264.5 141.941 265.259 141.173 266.179 141.317C268.204 141.634 270.111 142.52 271.668 143.888C273.649 145.629 274.929 148.033 275.268 150.649C275.607 153.265 274.983 155.915 273.51 158.104C272.354 159.824 270.736 161.167 268.858 161.99C268.006 162.364 267.076 161.814 266.839 160.915C266.602 160.015 267.153 159.108 267.977 158.676C269.071 158.103 270.014 157.263 270.713 156.223C271.728 154.714 272.159 152.886 271.925 151.082C271.692 149.278 270.809 147.621 269.443 146.42C268.501 145.593 267.376 145.022 266.171 144.746C265.264 144.538 264.5 143.802 264.5 142.872Z" fill="#E03953"/>
<path d="M323.246 145.084C323.246 144.776 322.997 144.527 322.69 144.527C322.382 144.527 322.133 144.776 322.133 145.084C322.133 145.392 322.382 145.641 322.69 145.641C322.997 145.641 323.246 145.392 323.246 145.084Z" fill="#B9BEC4"/>
<path d="M325.473 145.084C325.473 144.776 325.224 144.527 324.916 144.527C324.609 144.527 324.359 144.776 324.359 145.084C324.359 145.392 324.609 145.641 324.916 145.641C325.224 145.641 325.473 145.392 325.473 145.084Z" fill="#B9BEC4"/>
<path d="M327.704 145.084C327.704 144.776 327.454 144.527 327.147 144.527C326.839 144.527 326.59 144.776 326.59 145.084C326.59 145.392 326.839 145.641 327.147 145.641C327.454 145.641 327.704 145.392 327.704 145.084Z" fill="#B9BEC4"/>
<g filter="url(#filter0_d_867_6399)">
<path d="M92.1612 -13.0583H48.7278C46.8826 -13.0583 45.3867 -11.5625 45.3867 -9.71731V-2.4784C45.3867 -0.633196 46.8826 0.862637 48.7278 0.862637H92.1612C94.0064 0.862637 95.5023 -0.633196 95.5023 -2.4784V-9.71731C95.5023 -11.5625 94.0064 -13.0583 92.1612 -13.0583Z" fill="white"/>
</g>
<g filter="url(#filter1_d_867_6399)">
<path d="M356.659 -12.5015H292.622C290.777 -12.5015 289.281 -11.0056 289.281 -9.16043V54.8761C289.281 56.7213 290.777 58.2171 292.622 58.2171H356.659C358.504 58.2171 360 56.7213 360 54.8761V-9.16043C360 -11.0056 358.504 -12.5015 356.659 -12.5015Z" fill="white"/>
<path d="M332.159 2.5332H297.635C296.713 2.5332 295.965 3.28112 295.965 4.20372C295.965 5.12632 296.713 5.87424 297.635 5.87424H332.159C333.082 5.87424 333.83 5.12632 333.83 4.20372C333.83 3.28112 333.082 2.5332 332.159 2.5332Z" fill="#F5F3F1"/>
<path d="M350.535 13.1133H298.749C297.211 13.1133 295.965 14.3598 295.965 15.8975V32.0458C295.965 33.5835 297.211 34.83 298.749 34.83H350.535C352.073 34.83 353.319 33.5835 353.319 32.0458V15.8975C353.319 14.3598 352.073 13.1133 350.535 13.1133Z" fill="#F5F3F1"/>
<path d="M320.466 40.9553H298.192C296.962 40.9553 295.965 41.9525 295.965 43.1827V49.8648C295.965 51.0949 296.962 52.0921 298.192 52.0921H320.466C321.696 52.0921 322.693 51.0949 322.693 49.8648V43.1827C322.693 41.9525 321.696 40.9553 320.466 40.9553Z" fill="#FF0000"/>
<path d="M313.781 44.853H305.428C304.506 44.853 303.758 45.6009 303.758 46.5235C303.758 47.4461 304.506 48.1941 305.428 48.1941H313.781C314.704 48.1941 315.451 47.4461 315.451 46.5235C315.451 45.6009 314.704 44.853 313.781 44.853Z" fill="#FA6B6B"/>
<path d="M351.091 40.9553H328.817C327.587 40.9553 326.59 41.9525 326.59 43.1827V49.8648C326.59 51.0949 327.587 52.0921 328.817 52.0921H351.091C352.321 52.0921 353.318 51.0949 353.318 49.8648V43.1827C353.318 41.9525 352.321 40.9553 351.091 40.9553Z" fill="#F2E0E0"/>
<path d="M344.406 44.853H336.053C335.131 44.853 334.383 45.6009 334.383 46.5235C334.383 47.4461 335.131 48.1941 336.053 48.1941H344.406C345.329 48.1941 346.076 47.4461 346.076 46.5235C346.076 45.6009 345.329 44.853 344.406 44.853Z" fill="#F5EBEB"/>
</g>
<g filter="url(#filter2_d_867_6399)">
<path d="M118.888 105.549H53.1809C51.3357 105.549 49.8398 107.045 49.8398 108.89V173.483C49.8398 175.328 51.3357 176.824 53.1809 176.824H118.888C120.733 176.824 122.229 175.328 122.229 173.483V108.89C122.229 107.045 120.733 105.549 118.888 105.549Z" fill="white"/>
<path d="M109.981 143.414H62.0924C61.1698 143.414 60.4219 144.162 60.4219 145.084C60.4219 146.007 61.1698 146.755 62.0924 146.755H109.981C110.903 146.755 111.651 146.007 111.651 145.084C111.651 144.162 110.903 143.414 109.981 143.414Z" fill="#F4E1E1"/>
<path d="M101.627 149.539H70.444C69.5214 149.539 68.7734 150.287 68.7734 151.21C68.7734 152.132 69.5214 152.88 70.444 152.88H101.627C102.55 152.88 103.297 152.132 103.297 151.21C103.297 150.287 102.55 149.539 101.627 149.539Z" fill="#F4E1E1"/>
<path d="M86.0313 137.845C92.182 137.845 97.1681 132.859 97.1681 126.709C97.1681 120.558 92.182 115.572 86.0313 115.572C79.8806 115.572 74.8945 120.558 74.8945 126.709C74.8945 132.859 79.8806 137.845 86.0313 137.845Z" fill="#F5F3F1"/>
<path d="M86.4189 124.803L86.8115 125.594C86.8644 125.703 87.0064 125.807 87.1261 125.829L87.8361 125.947C88.2899 126.023 88.3957 126.353 88.0699 126.684L87.5159 127.242C87.424 127.335 87.3711 127.517 87.4017 127.649L87.5604 128.338C87.6857 128.882 87.3962 129.095 86.9201 128.809L86.2546 128.411C86.1349 128.338 85.9344 128.338 85.8147 128.411L85.1493 128.809C84.6732 129.092 84.3837 128.882 84.5089 128.338L84.6676 127.649C84.6927 127.514 84.6398 127.332 84.5479 127.239L83.9939 126.681C83.6681 126.353 83.7739 126.023 84.2277 125.944L84.9377 125.827C85.0574 125.807 85.1994 125.7 85.2523 125.591L85.6449 124.8C85.8593 124.374 86.2045 124.374 86.4189 124.803Z" fill="#BBC9D4"/>
<path d="M97.1689 156.221H74.8953C73.6652 156.221 72.668 157.218 72.668 158.448V165.13C72.668 166.361 73.6652 167.358 74.8953 167.358H97.1689C98.399 167.358 99.3963 166.361 99.3963 165.13V158.448C99.3963 157.218 98.399 156.221 97.1689 156.221Z" fill="#FF0000"/>
<path d="M90.488 160.119H82.1354C81.2128 160.119 80.4648 160.867 80.4648 161.79C80.4648 162.712 81.2128 163.46 82.1354 163.46H90.488C91.4106 163.46 92.1585 162.712 92.1585 161.79C92.1585 160.867 91.4106 160.119 90.488 160.119Z" fill="#FF5959"/>
</g>
<path d="M175.686 129.493H171.232C169.386 129.493 167.891 130.989 167.891 132.834V137.288C167.891 139.134 169.386 140.629 171.232 140.629H175.686C177.532 140.629 179.027 139.134 179.027 137.288V132.834C179.027 130.989 177.532 129.493 175.686 129.493Z" fill="#F4E3E3"/>
<path d="M174.012 136.175V133.947L172.898 135.061L174.012 136.175Z" fill="white" stroke="white"/>
<path d="M215.22 129.493H219.675C221.52 129.493 223.016 130.989 223.016 132.834V137.288C223.016 139.134 221.52 140.629 219.675 140.629H215.22C213.375 140.629 211.879 139.134 211.879 137.288V132.834C211.879 130.989 213.375 129.493 215.22 129.493Z" fill="#F4E3E3"/>
<path d="M216.891 136.175V133.947L218.004 135.061L216.891 136.175Z" fill="white" stroke="white"/>
<path d="M184.318 136.731C185.087 136.731 185.71 136.108 185.71 135.339C185.71 134.571 185.087 133.947 184.318 133.947C183.549 133.947 182.926 134.571 182.926 135.339C182.926 136.108 183.549 136.731 184.318 136.731Z" fill="#F4E3E3"/>
<path d="M189.884 136.731C190.653 136.731 191.276 136.108 191.276 135.339C191.276 134.571 190.653 133.947 189.884 133.947C189.115 133.947 188.492 134.571 188.492 135.339C188.492 136.108 189.115 136.731 189.884 136.731Z" fill="#F4E3E3"/>
<path d="M195.455 136.731C196.223 136.731 196.847 136.108 196.847 135.339C196.847 134.571 196.223 133.947 195.455 133.947C194.686 133.947 194.062 134.571 194.062 135.339C194.062 136.108 194.686 136.731 195.455 136.731Z" fill="#FF3333"/>
<path d="M201.021 136.731C201.79 136.731 202.413 136.108 202.413 135.339C202.413 134.571 201.79 133.947 201.021 133.947C200.252 133.947 199.629 134.571 199.629 135.339C199.629 136.108 200.252 136.731 201.021 136.731Z" fill="#F4E3E3"/>
<path d="M206.591 136.731C207.36 136.731 207.983 136.108 207.983 135.339C207.983 134.571 207.36 133.947 206.591 133.947C205.822 133.947 205.199 134.571 205.199 135.339C205.199 136.108 205.822 136.731 206.591 136.731Z" fill="#F4E3E3"/>
<path d="M109.42 -13.0583H102.181C100.336 -13.0583 98.8398 -11.5625 98.8398 -9.71731V-2.4784C98.8398 -0.633196 100.336 0.862637 102.181 0.862637H109.42C111.265 0.862637 112.761 -0.633196 112.761 -2.4784V-9.71731C112.761 -11.5625 111.265 -13.0583 109.42 -13.0583Z" fill="#FF0000"/>
</g>
<rect x="0.5" y="0.5" width="359" height="195" rx="11.5" stroke="#E3E1DF"/>
<defs>
<filter id="filter0_d_867_6399" x="30.4867" y="-23.9583" width="79.9172" height="43.7209" filterUnits="userSpaceOnUse" color-interpolation-filters="sRGB">
<feFlood flood-opacity="0" result="BackgroundImageFix"/>
<feColorMatrix in="SourceAlpha" type="matrix" values="0 0 0 0 0 0 0 0 0 0 0 0 0 0 0 0 0 0 127 0" result="hardAlpha"/>
<feOffset dy="4"/>
<feGaussianBlur stdDeviation="7.45"/>
<feComposite in2="hardAlpha" operator="out"/>
<feColorMatrix type="matrix" values="0 0 0 0 0 0 0 0 0 0 0 0 0 0 0 0 0 0 0.07 0"/>
<feBlend mode="normal" in2="BackgroundImageFix" result="effect1_dropShadow_867_6399"/>
<feBlend mode="normal" in="SourceGraphic" in2="effect1_dropShadow_867_6399" result="shape"/>
</filter>
<filter id="filter1_d_867_6399" x="274.481" y="-23.3015" width="100.319" height="100.319" filterUnits="userSpaceOnUse" color-interpolation-filters="sRGB">
<feFlood flood-opacity="0" result="BackgroundImageFix"/>
<feColorMatrix in="SourceAlpha" type="matrix" values="0 0 0 0 0 0 0 0 0 0 0 0 0 0 0 0 0 0 127 0" result="hardAlpha"/>
<feOffset dy="4"/>
<feGaussianBlur stdDeviation="7.4"/>
<feComposite in2="hardAlpha" operator="out"/>
<feColorMatrix type="matrix" values="0 0 0 0 0 0 0 0 0 0 0 0 0 0 0 0 0 0 0.16 0"/>
<feBlend mode="normal" in2="BackgroundImageFix" result="effect1_dropShadow_867_6399"/>
<feBlend mode="normal" in="SourceGraphic" in2="effect1_dropShadow_867_6399" result="shape"/>
</filter>
<filter id="filter2_d_867_6399" x="23.1398" y="94.8488" width="125.791" height="124.675" filterUnits="userSpaceOnUse" color-interpolation-filters="sRGB">
<feFlood flood-opacity="0" result="BackgroundImageFix"/>
<feColorMatrix in="SourceAlpha" type="matrix" values="0 0 0 0 0 0 0 0 0 0 0 0 0 0 0 0 0 0 127 0" result="hardAlpha"/>
<feOffset dy="16"/>
<feGaussianBlur stdDeviation="13.35"/>
<feComposite in2="hardAlpha" operator="out"/>
<feColorMatrix type="matrix" values="0 0 0 0 0 0 0 0 0 0 0 0 0 0 0 0 0 0 0.08 0"/>
<feBlend mode="normal" in2="BackgroundImageFix" result="effect1_dropShadow_867_6399"/>
<feBlend mode="normal" in="SourceGraphic" in2="effect1_dropShadow_867_6399" result="shape"/>
</filter>
<clipPath id="clip0_867_6399">
<rect width="360" height="196" rx="12" fill="white"/>
</clipPath>
</defs>
</svg>
