<svg width="28" height="28" viewBox="0 0 28 28" fill="none" xmlns="http://www.w3.org/2000/svg">
<rect width="28" height="28" rx="8" fill="#E60003"/>
<path d="M21.8688 6.02748C23.1243 6.34709 22.8731 6.16125 23 7.40361C22.392 6.84932 21.388 6.99266 20.7369 7.40361C19.7241 8.71868 21.2539 9.27397 22.4475 10.6301C23.7859 12.8493 21.801 14.8469 20.0286 16.3675C19.68 17.6587 19.9944 18.4599 20.639 19.3425C21.4431 18.601 22.6284 18.8082 22.9901 20.2466H19.7347C19.0955 19.5624 18.7557 19.0303 18.5352 18.5714C18.0872 18.0583 17.6855 17.3499 17.5333 16.7239C16.8239 16.5762 15.7971 16.7246 15.1641 16.9751C15.1565 16.9966 15.1487 17.0186 15.1409 17.0411C14.6892 17.9834 14.3589 18.4086 13.6578 19.0137H14.743C15.237 19.0137 15.4372 19.0219 15.4997 19.0309C15.539 19.0261 15.5894 19.0204 15.6533 19.0137C16.92 19.1041 15.9236 18.8614 16.5154 19.0137C17.0372 19.3323 17.2225 19.6138 17.4197 20.2466H11.0173C11.0068 18.0905 11.5952 16.9804 13.5493 15.1507C12.2622 15.8482 11.7014 16.3217 11.0173 17.3288C9.24107 18.3359 8.83094 18.8884 9.85981 19.8356C10.7337 20.0611 11.046 20.3723 11.3428 21.1918C10.6598 22.1893 10.2218 22.6169 9.28106 23C9.63522 22.2821 9.63069 21.8679 9.28106 21.1096C7.93883 20.1495 7.70085 19.4504 8.62997 17.7808C8.99882 16.989 11.006 15.8904 16.6601 13.1781C15.6462 13.2704 14.7308 13.5549 12.645 14.3699C10.9255 15.1744 10.0926 15.3417 8.73849 15.3562C7.29835 15.2229 6.67827 14.8668 5.80858 13.8767C8.67057 14.5644 10.6749 14.2065 14.9238 12.3151C13.8838 12.3509 13.1336 12.5658 11.7407 13.0137C10.616 13.3749 9.95707 13.4869 8.73849 13.5479C6.26226 13.4935 5.08731 13.1417 4 11C6.54096 12.6362 8.92078 12.4484 14.1281 11C13.4149 10.9028 12.7942 10.9846 11.6322 11.1644C10.6544 11.363 10.0317 11.4261 8.73849 11.411C5.41069 11.411 4.68391 9.58024 4.7596 7.42466C5.9953 9.92683 7.71543 10.0287 10.8726 9.84931C7.64926 9.62579 6.30808 9.0492 5.84476 6.64384C7.76335 8.64368 9.72003 8.72976 13.3323 8.73973C14.3842 8.88923 14.8919 9.07365 15.0685 10.3014C15.1647 12.0371 15.7863 12.2055 16.999 12.5368C17.0244 12.5357 17.0511 12.5374 17.0793 12.5424C17.3535 12.3273 17.672 12.0073 18.1069 11.9041C17.6762 11.3047 17.6105 10.8469 17.6367 9.93151C17.2585 10.3588 17.1616 10.6971 17.0218 11.3288C16.5728 10.5994 16.5615 10.0938 17.1665 8.9452C16.9406 8.98187 16.7897 9.13589 16.5154 9.43836C16.7429 8.22157 17.1682 7.78685 18.1793 7.21918C16.9472 7.50646 16.5237 7.26361 16.0813 6.35616C17.0714 6.75968 17.5005 6.61741 18.1793 6.10959C17.4924 5.98287 17.3484 5.69025 17.275 5C17.9013 5.61711 18.5237 5.61725 19.6985 5.53433C20.8295 5.30819 21.2518 5.34858 21.8688 6.02748Z" fill="white"/>
</svg>
