<svg width="51" height="51" viewBox="0 0 51 51" fill="none" xmlns="http://www.w3.org/2000/svg">
<circle cx="25.5" cy="25.5" r="25.5" fill="#FF0000"/>
<path d="M36.452 15.37C38.1701 15.7961 37.8264 15.5483 38 17.2048C37.168 16.4658 35.7941 16.6569 34.9031 17.2048C33.5172 18.9582 35.6106 19.6986 37.244 21.5068C39.0754 24.4658 36.3592 27.1292 33.9338 29.1566C33.4568 30.8782 33.8871 31.9465 34.7691 33.1233C35.8695 32.1347 37.4915 32.411 37.9865 34.3288H33.5316C32.657 33.4165 32.192 32.7071 31.8903 32.0951C31.2772 31.4111 30.7276 30.4665 30.5193 29.6319C29.5484 29.435 28.1434 29.6329 27.2772 29.9668C27.2668 29.9955 27.2562 30.0248 27.2454 30.0548C26.6273 31.3113 26.1753 31.8781 25.216 32.6849H26.7009C27.3769 32.6849 27.6509 32.6959 27.7364 32.7079C27.7902 32.7015 27.8592 32.6939 27.9467 32.6849C29.68 32.8054 28.3164 32.4819 29.1263 32.6849C29.8404 33.1097 30.0939 33.4851 30.3638 34.3288H21.6026C21.5882 31.454 22.3934 29.9739 25.0675 27.5342C23.3062 28.4642 22.5387 29.0956 21.6026 30.4384C19.172 31.7812 18.6108 32.5178 20.0187 33.7808C21.2146 34.0815 21.6418 34.4964 22.0481 35.589C21.1135 36.9191 20.5141 37.4891 19.2267 38C19.7114 37.0428 19.7052 36.4905 19.2267 35.4795C17.39 34.1993 17.0643 33.2672 18.3357 31.0411C18.8405 29.9853 21.5872 28.5205 29.3243 24.9041C27.9369 25.0272 26.6842 25.4065 23.83 26.4931C21.477 27.5658 20.3372 27.7889 18.4842 27.8082C16.5135 27.6305 15.665 27.1557 14.4749 25.8356C18.3913 26.7525 21.1341 26.2754 26.9484 23.7534C25.5252 23.8012 24.4986 24.0877 22.5926 24.6849C21.0534 25.1666 20.1518 25.3159 18.4842 25.3973C15.0957 25.3247 13.4879 24.8556 12 22C15.4771 24.1816 18.7337 23.9313 25.8595 22C24.8835 21.8704 24.0342 21.9794 22.4441 22.2192C21.1061 22.484 20.2539 22.5682 18.4842 22.5479C13.9304 22.5479 12.9359 20.107 13.0395 17.2329C14.7304 20.5691 17.0843 20.705 21.4046 20.4658C16.9937 20.1677 15.1584 19.3989 14.5244 16.1918C17.1498 18.8582 19.8274 18.973 24.7705 18.9863C26.2099 19.1856 26.9047 19.4315 27.1464 21.0685C27.278 23.3828 28.1286 23.6073 29.7881 24.049C29.8229 24.0476 29.8594 24.0498 29.8979 24.0566C30.2731 23.7698 30.709 23.3431 31.3042 23.2055C30.7148 22.4062 30.6248 21.7958 30.6608 20.5753C30.1433 21.145 30.0107 21.5961 29.8193 22.4384C29.2049 21.4659 29.1895 20.7917 30.0173 19.2603C29.7082 19.3092 29.5016 19.5145 29.1263 19.9178C29.4377 18.2954 30.0196 17.7158 31.4032 16.9589C29.7172 17.3419 29.1377 17.0182 28.5323 15.8082C29.8872 16.3462 30.4743 16.1565 31.4032 15.4795C30.4632 15.3105 30.2663 14.9203 30.1658 14C31.0229 14.8228 31.8745 14.823 33.4821 14.7124C35.0299 14.4109 35.6078 14.4648 36.452 15.37Z" fill="white"/>
</svg>
